#!OML:ASF H:\Terrain\Patient Classification 1\Walking\liu\liu.ASF
:FULLY-SPECIFIED
:DEGREES
1
root 7.85154 15.8111 -40.8341 8.91128 -1.78732 -2.04477
lowerback -1.99859 -0.060385 -1.6912
upperback -1.77699 -0.0468165 3.13924
thorax -0.699926 0.0119792 4.18089
lowerneck -18.5911 -3.33301 -11.6133
upperneck 17.3735 -3.94142 12.1882
head 8.98701 -1.34842 5.63895
rclavicle 5.96354e-015 2.26615e-014
rhumerus -32.8499 16.0888 -90.507
rradius 30.3929
rwrist -13.2645
rhand -32.0989 -24.4624
rfingers 7.12502
rthumb -5.34424 -54.375
lclavicle 5.96354e-015 2.26615e-014
lhumerus -40.8173 -13.9163 95.3161
lradius 25.474
lwrist 1.62119
lhand -14.861 -25.4745
lfingers 7.12502
lthumb 11.2988 4.20112
rfemur -17.9728 4.48769 28.6914
rtibia 32.2574
rfoot -20.9625 2.17414
rtoes -12.9853
lfemur -36.8422 7.89725 -19.4008
ltibia 69.8159
lfoot -11.5053 17.861
ltoes 0
2
root 7.85144 15.8945 -40.614 9.07306 -2.44646 -2.1313
lowerback -2.39271 0.252659 -2.21536
upperback -1.57172 0.378507 3.51411
thorax -0.312149 0.222259 4.87845
lowerneck -18.914 -3.53077 -11.9768
upperneck 17.5611 -4.01306 11.8361
head 9.11897 -1.43425 5.57161
rclavicle 9.34288e-015 0
rhumerus -31.7528 18.9172 -90.6328
rradius 31.7196
rwrist -14.4928
rhand -32.4838 -24.4066
rfingers 7.12502
rthumb -5.71581 -54.3096
lclavicle 9.34288e-015 0
lhumerus -42.3557 -14.4734 96.4737
lradius 26.5501
lwrist 2.74509
lhand -8.9075 -19.761
lfingers 7.12502
lthumb 17.0355 9.51205
rfemur -16.0198 4.91802 28.8039
rtibia 29.7917
rfoot -20.4831 1.4849
rtoes -15.5283
lfemur -39.4116 7.58281 -19.0918
ltibia 68.3518
lfoot -12.1587 16.1522
ltoes 0
3
root 7.85739 15.9353 -40.3952 9.00241 -2.7741 -2.27582
lowerback -2.80109 0.54185 -2.28916
upperback -1.11008 0.760538 3.63099
thorax 0.349963 0.394044 5.05876
lowerneck -19.94 -3.86466 -11.8558
upperneck 18.1313 -4.32508 11.3218
head 9.5296 -1.59894 5.34176
rclavicle -6.11263e-015 -3.73715e-014
rhumerus -30.1857 20.8216 -90.5056
rradius 33.0085
rwrist -15.338
rhand -32.3534 -23.5434
rfingers 7.12502
rthumb -5.5899 -53.4497
lclavicle -6.11263e-015 -3.73715e-014
lhumerus -42.7111 -14.9562 97.0051
lradius 25.6621
lwrist 3.15971
lhand -8.95363 -20.2016
lfingers 7.12502
lthumb 16.9911 9.0753
rfemur -14.8959 4.86201 29.0391
rtibia 29.5271
rfoot -20.958 1.33348
rtoes -14.6832
lfemur -41.0297 7.53453 -18.8956
ltibia 66.7272
lfoot -12.6466 15.5351
ltoes -12.5733
4
root 7.86289 15.8386 -40.2081 9.03816 -2.99522 -3.21388
lowerback -2.76615 0.844135 -1.36465
upperback -0.916005 1.13484 3.74693
thorax 0.507151 0.574449 4.66504
lowerneck -20.6111 -4.06598 -11.5731
upperneck 18.3675 -4.59346 11.1375
head 9.75851 -1.70548 5.19588
rclavicle -2.57923e-014 -1.59028e-015
rhumerus -28.6948 22.2739 -90.589
rradius 34.1964
rwrist -15.9877
rhand -31.7757 -22.1722
rfingers 7.12502
rthumb -5.03218 -52.0925
lclavicle -2.57923e-014 -1.59028e-015
lhumerus -43.4892 -16.4018 97.7177
lradius 24.588
lwrist 4.47663
lhand -9.67266 -21.2531
lfingers 7.12502
lthumb 16.2988 8.08195
rfemur -14.0137 5.1303 30.2495
rtibia 29.0872
rfoot -20.9243 0.758874
rtoes -12.9983
lfemur -41.5719 8.35315 -18.3777
ltibia 65.2897
lfoot -14.5618 14.1905
ltoes -15.4027
5
root 7.863 15.7599 -40.0313 9.21558 -3.24766 -4.45117
lowerback -2.33749 0.994356 -0.350804
upperback -1.10514 1.32 4.11313
thorax 0.0703804 0.673886 4.46444
lowerneck -20.0581 -3.88367 -11.8024
upperneck 17.7872 -4.34852 11.4097
head 9.43579 -1.59192 5.351
rclavicle 3.57812e-015 -1.27222e-014
rhumerus -27.7071 24.4929 -90.8527
rradius 35.5356
rwrist -16.9012
rhand -31.7623 -22.3111
rfingers 7.12502
rthumb -5.01918 -52.2316
lclavicle 3.57812e-015 -1.27222e-014
lhumerus -45.0064 -14.2482 96.6154
lradius 25.3664
lwrist 2.66172
lhand -8.80362 -21.4818
lfingers 7.12502
lthumb 17.1355 7.78258
rfemur -13.3694 5.8196 31.7989
rtibia 28.9449
rfoot -20.9786 -0.115773
rtoes -12.4559
lfemur -42.6319 7.48579 -16.1831
ltibia 63.2903
lfoot -18.4192 10.9764
ltoes -10.6613
6
root 7.86717 15.7385 -39.8308 9.38639 -3.535 -4.72133
lowerback -2.12614 1.11401 -0.224126
upperback -1.27921 1.48778 4.21578
thorax -0.240002 0.763338 4.49587
lowerneck -18.8092 -3.50698 -12.3822
upperneck 16.4166 -3.85269 12.1489
head 8.70486 -1.353 5.73857
rclavicle -2.05245e-014 1.66979e-014
rhumerus -26.7754 26.6603 -90.9305
rradius 36.7317
rwrist -17.8858
rhand -32.3702 -21.5759
rfingers 7.12502
rthumb -5.60617 -51.4817
lclavicle -2.05245e-014 1.66979e-014
lhumerus -45.8287 -13.2007 96.2792
lradius 24.3337
lwrist 2.457
lhand -8.6958 -21.2613
lfingers 7.12502
lthumb 17.2392 7.99403
rfemur -12.6218 5.81841 32.1633
rtibia 28.8321
rfoot -21.1991 -0.126778
rtoes -11.2469
lfemur -43.759 7.16663 -15.7761
ltibia 60.8529
lfoot -18.9079 10.1943
ltoes -7.6572
7
root 7.87353 15.7586 -39.6029 9.43786 -3.9768 -4.47003
lowerback -2.17338 1.33585 -0.595836
upperback -1.22975 1.78884 4.15798
thorax -0.196618 0.915566 4.65323
lowerneck -18.9226 -3.59156 -12.6528
upperneck 16.1274 -3.90882 12.3967
head 8.64686 -1.36746 5.85821
rclavicle 5.61567e-015 2.62396e-014
rhumerus -25.6184 28.4476 -90.6163
rradius 38.0145
rwrist -18.8091
rhand -32.7488 -22.4837
rfingers 7.12502
rthumb -5.97165 -52.3795
lclavicle 5.61567e-015 2.62396e-014
lhumerus -47.2375 -12.5387 96.0283
lradius 25.0131
lwrist 2.28124
lhand -9.01267 -20.5251
lfingers 7.12502
lthumb 16.9342 8.75667
rfemur -11.4029 5.5295 31.8374
rtibia 28.112
rfoot -21.2614 0.341587
rtoes -15.1283
lfemur -44.6079 7.3955 -16.4198
ltibia 57.8941
lfoot -16.3193 11.7742
ltoes -12.4758
8
root 7.89246 15.8021 -39.3101 9.08697 -4.7579 -3.60507
lowerback -2.80006 1.55989 -1.4222
upperback -0.807488 2.08898 3.93397
thorax 0.541206 1.05165 4.92219
lowerneck -20.0146 -3.77923 -12.2194
upperneck 17.012 -4.04894 11.5301
head 9.13279 -1.46594 5.48433
rclavicle 9.34288e-015 -3.49861e-014
rhumerus -24.3385 30.246 -90.0664
rradius 39.4059
rwrist -19.725
rhand -32.8008 -24.0008
rfingers 7.12502
rthumb -6.02189 -53.8952
lclavicle 9.34288e-015 -3.49861e-014
lhumerus -47.9884 -11.0715 95.2165
lradius 24.5244
lwrist 1.31722
lhand -9.50377 -20.9024
lfingers 7.12502
lthumb 16.4615 8.4192
rfemur -9.26166 4.6461 30.6255
rtibia 26.9882
rfoot -21.1641 1.73464
rtoes -14.0032
lfemur -44.1538 7.51317 -17.5638
ltibia 54.5276
lfoot -15.272 12.6636
ltoes -14.5816
9
root 7.90506 15.8114 -39.0628 8.95006 -5.26202 -3.60876
lowerback -2.97669 1.75614 -1.36997
upperback -0.656044 2.34499 3.8836
thorax 0.775618 1.17376 4.85682
lowerneck -22.4418 -4.07016 -9.80975
upperneck 19.428 -4.28451 7.9774
head 10.3064 -1.7563 3.81572
rclavicle 6.4605e-016 7.15625e-015
rhumerus -23.0963 31.7636 -89.6327
rradius 40.5877
rwrist -20.3806
rhand -32.475 -24.4235
rfingers 7.12502
rthumb -5.70733 -54.3267
lclavicle 6.4605e-016 7.15625e-015
lhumerus -49.3651 -10.8588 95.0859
lradius 24.7159
lwrist 2.02777
lhand -10.3047 -19.4336
lfingers 7.12502
lthumb 15.6902 9.95024
rfemur -7.44369 4.68625 30.4846
rtibia 25.7576
rfoot -20.8247 1.92686
rtoes -12.7393
lfemur -44.1371 7.44021 -17.4292
ltibia 51.1348
lfoot -14.9183 12.4437
ltoes -14.3644
10
root 7.92879 15.8067 -38.8382 9.03252 -5.52417 -3.8952
lowerback -2.97422 2.00815 -0.718941
upperback -0.674303 2.6632 3.69296
thorax 0.764741 1.33379 4.2983
lowerneck -19.1339 -3.99429 -10.6256
upperneck 15.9284 -4.40233 9.49312
head 8.56489 -1.7591 4.41089
rclavicle 4.72114e-015 -1.11319e-014
rhumerus -21.8361 32.6578 -89.2996
rradius 41.6418
rwrist -20.795
rhand -31.9703 -23.9167
rfingers 7.12502
rthumb -5.22009 -53.8324
lclavicle 4.72114e-015 -1.11319e-014
lhumerus -51.1648 -11.8847 95.4145
lradius 25.5144
lwrist 3.47476
lhand -11.7125 -16.4865
lfingers 7.12502
lthumb 14.3341 12.9987
rfemur -5.99281 4.05176 30.5604
rtibia 24.5209
rfoot -20.4467 2.59044
rtoes -5.49828
lfemur -44.4128 7.13568 -16.9372
ltibia 47.6754
lfoot -14.4998 11.9791
ltoes -13.449
11
root 7.95309 15.7999 -38.6102 9.36806 -5.92708 -3.90176
lowerback -3.35541 2.25145 -0.599138
upperback -0.650579 2.97922 3.59568
thorax 0.988617 1.48897 4.15791
lowerneck -21.6531 -4.27019 -10.3806
upperneck 18.3805 -4.63164 8.95667
head 9.86633 -1.85593 4.1923
rclavicle -2.45002e-014 2.3059e-014
rhumerus -20.3309 33.6923 -88.5487
rradius 42.5865
rwrist -21.1125
rhand -31.5847 -22.9091
rfingers 7.12502
rthumb -4.84777 -52.8336
lclavicle -2.45002e-014 2.3059e-014
lhumerus -52.1798 -11.6594 95.141
lradius 25.4595
lwrist 3.6263
lhand -12.4505 -15.4269
lfingers 7.12502
lthumb 13.6229 14.1073
rfemur -4.88486 2.81801 30.1456
rtibia 23.304
rfoot -20.278 4.16672
rtoes -14.0688
lfemur -44.9153 6.90797 -16.7957
ltibia 44.2978
lfoot -14.0257 11.4788
ltoes -12.4088
12
root 7.96205 15.7953 -38.3762 9.70726 -6.39458 -3.96537
lowerback -3.85665 2.46028 -0.809997
upperback -0.600882 3.25714 3.71233
thorax 1.28019 1.62327 4.43565
lowerneck -22.0182 -4.34818 -10.8749
upperneck 18.6394 -4.63257 9.28487
head 10.0461 -1.84724 4.40021
rclavicle -2.28602e-015 2.54444e-014
rhumerus -18.8585 35.0206 -87.5858
rradius 43.5098
rwrist -21.8022
rhand -30.9432 -21.0131
rfingers 7.12502
rthumb -4.22829 -50.9509
lclavicle -2.28602e-015 2.54444e-014
lhumerus -52.8821 -10.5691 94.4501
lradius 24.9402
lwrist 3.3976
lhand -12.0333 -16.6283
lfingers 7.12502
lthumb 14.0249 12.8785
rfemur -3.77803 2.52031 29.9048
rtibia 22.2054
rfoot -20.1698 4.94196
rtoes -16.2656
lfemur -45.3854 6.86839 -16.544
ltibia 40.9064
lfoot -13.2218 10.9457
ltoes -11.0631
13
root 7.97664 15.7804 -38.1395 9.79314 -6.55563 -4.37542
lowerback -4.0197 2.62996 -0.353877
upperback -0.565395 3.45952 3.76002
thorax 1.41544 1.7239 4.24723
lowerneck -20.347 -4.24615 -12.4152
upperneck 16.9907 -4.55552 11.3415
head 9.25335 -1.72612 5.37662
rclavicle -2.21645e-014 -2.54444e-014
rhumerus -17.608 36.1033 -86.8574
rradius 44.5243
rwrist -22.6944
rhand -32.3663 -17.3355
rfingers 7.12502
rthumb -5.6024 -47.2414
lclavicle -2.21645e-014 -2.54444e-014
lhumerus -53.8579 -9.84868 93.6149
lradius 24.6203
lwrist 3.31033
lhand -11.3756 -17.1436
lfingers 7.12502
lthumb 14.6586 12.3182
rfemur -2.495 2.71131 30.1814
rtibia 21.3984
rfoot -20.1296 5.02491
rtoes -16.2018
lfemur -45.5045 6.57952 -15.8015
ltibia 37.4027
lfoot -12.4351 10.1012
ltoes -8.92593
14
root 7.99035 15.7581 -37.9105 9.88175 -6.75942 -4.41334
lowerback -4.11377 2.75331 -0.228519
upperback -0.561094 3.61841 3.64581
thorax 1.4757 1.80313 4.07102
lowerneck -22.5847 -4.45422 -11.2042
upperneck 19.3744 -4.71367 9.53327
head 10.4382 -1.87072 4.55317
rclavicle 2.40032e-014 1.74931e-014
rhumerus -16.2117 36.9768 -86.0898
rradius 45.4023
rwrist -22.8085
rhand -35.9183 -13.1638
rfingers 7.12502
rthumb -9.03093 -42.9505
lclavicle 2.40032e-014 1.74931e-014
lhumerus -54.6949 -8.67317 92.2587
lradius 24.2215
lwrist 2.57066
lhand -10.6717 -17.9231
lfingers 7.12502
lthumb 15.3367 11.4882
rfemur -1.34331 3.00049 30.0661
rtibia 20.5859
rfoot -20.0524 4.99689
rtoes -15.298
lfemur -45.573 5.91531 -15.2938
ltibia 33.9163
lfoot -11.7678 9.43394
ltoes -7.90848
15
root 8.00063 15.7348 -37.6948 10.0364 -7.21033 -4.1383
lowerback -4.20781 2.87396 -0.584705
upperback -0.590699 3.79805 3.48368
thorax 1.47277 1.89202 4.11561
lowerneck -20.8401 -4.21905 -13.1827
upperneck 17.6226 -4.49632 12.3619
head 9.59975 -1.63058 5.91396
rclavicle -9.0944e-015 3.02153e-014
rhumerus -14.798 37.9409 -85.3344
rradius 46.1792
rwrist -22.8086
rhand -36.8406 -13.4229
rfingers 7.12502
rthumb -9.92085 -43.1691
lclavicle -9.0944e-015 3.02153e-014
lhumerus -55.3588 -7.0992 90.5547
lradius 23.6096
lwrist 1.5103
lhand -11.0455 -18.6547
lfingers 7.12502
lthumb 14.9766 10.7838
rfemur -0.249375 3.72382 29.6278
rtibia 19.5632
rfoot -19.701 4.70967
rtoes -16.2433
lfemur -45.7498 4.89903 -14.8223
ltibia 30.7059
lfoot -11.4788 9.7202
ltoes -8.97134
